<svg width="480" height="100" viewBox="0 0 480 100" fill="none" xmlns="http://www.w3.org/2000/svg">
    <!-- M symbol -->
    <g>
        <!-- Top triangles -->
        <path d="M15 10 L35 30 L55 10 L35 30 L15 10Z" fill="#FF4B1B"/>
        <!-- Middle triangles -->
        <path d="M5 30 L25 50 L45 30 L25 50 L5 30Z" fill="#FF4B1B"/>
        <!-- Bottom triangles -->
        <path d="M15 50 L35 70 L55 50 L35 70 L15 50Z" fill="#FF4B1B"/>
    </g>
    
    <!-- "meria" text -->
    <path d="M100 30 H120 Q140 30 140 50 V70 H120 V50 Q120 40 110 40 H100 V70 H80 V30 H100Z" fill="white"/>
    <path d="M160 30 H180 V70 H160 V30Z" fill="white"/>
    <path d="M200 30 H220 Q240 30 240 50 V70 H220 V50 Q220 40 210 40 H200 V70 H180 V30 H200Z" fill="white"/>
    <path d="M260 30 H280 V70 H260 V30Z" fill="white"/>
    <path d="M300 30 H320 Q340 30 340 50 V70 H320 V50 Q320 40 310 40 H300 V70 H280 V30 H300Z" fill="white"/>
    <circle cx="350" cy="30" r="5" fill="white"/>
</svg>
