<svg width="480" height="100" viewBox="0 0 480 100" fill="none" xmlns="http://www.w3.org/2000/svg">
<g clip-path="url(#clip0_1306_5669)">
<path d="M61.0404 98.5391C55.7404 98.9191 50.4304 99.1091 45.1204 99.1091C36.5804 99.1091 28.0404 98.6191 19.5704 97.6391C9.74041 97.2791 1.89041 89.3991 1.54041 79.5391L1.30041 77.4891C-0.529591 61.1991 -0.42959 44.7791 1.60041 28.6491L1.77041 27.2891C1.77041 27.2891 1.77041 27.2591 1.77041 27.2391L1.81041 26.9691C3.08041 18.0391 10.1404 11.1091 19.1004 10.0691C36.3604 8.02906 53.8704 8.02906 71.1404 10.0691C80.6604 11.1991 88.3204 19.5591 88.6904 29.1691C90.6604 45.2091 90.7404 61.4591 88.9304 77.4691L88.6904 79.5491C88.3404 88.5591 81.1604 96.3991 72.2304 97.4591L61.0504 98.5191L61.0404 98.5391ZM11.6504 28.8491L11.5204 29.8991C9.59041 45.2491 9.50041 60.8691 11.2304 76.3391L11.5204 79.0591C11.6304 83.7691 15.3704 87.5391 20.0404 87.6491L20.5004 87.6791C35.4304 89.4191 50.5904 89.5691 65.5504 88.1191L71.0304 87.5391C75.1504 87.0491 78.5804 83.2491 78.6804 79.0591L78.7104 78.6091L78.9704 76.3391C80.7004 61.0391 80.6204 45.4991 78.7104 30.1691L78.6704 29.6791C78.5504 24.8991 74.6404 20.5591 69.9404 19.9991C53.4504 18.0491 36.7304 18.0491 20.2404 19.9991C15.8504 20.5091 12.3904 23.8791 11.7104 28.2491V28.5191L11.6304 28.8291L11.6504 28.8491Z" fill="white"/>
<path d="M43.5499 34.3047H41.3699C38.5199 34.3047 36.1999 36.6147 36.1999 39.4647C36.1999 39.4647 36.1999 41.8747 36.1999 42.0647C36.0999 45.2647 33.8099 47.5047 30.6299 47.5747C30.2599 47.5747 28.0799 47.5747 28.0799 47.5747C25.2299 47.5747 22.9199 49.8847 22.9199 52.7347V54.9247C22.9199 57.7747 25.2299 60.0847 28.0799 60.0847H30.5299C33.9199 60.1447 36.1599 62.3647 36.1999 65.7447C36.1999 66.3047 36.1999 68.2047 36.1999 68.2047C36.1999 71.0547 38.5199 73.3647 41.3699 73.3647H43.5499C46.3999 73.3647 48.7099 71.0547 48.7099 68.2047V66.0147C48.7099 63.1647 46.3999 60.8547 43.5499 60.8547C43.5499 60.8547 41.0899 60.8547 40.9799 60.8547C37.7999 60.7847 35.4999 58.5547 35.3999 55.3547C35.3999 55.2347 35.3999 52.5047 35.3999 52.4547C35.4399 49.0847 37.6899 46.8747 41.0799 46.8147C41.1599 46.8147 43.5499 46.8147 43.5499 46.8147C46.3999 46.8147 48.7099 44.5047 48.7099 41.6547V39.4647C48.7099 36.6147 46.3999 34.3047 43.5499 34.3047Z" fill="white"/>
<path d="M60.2202 34.1328H59.5602C56.8982 34.1328 54.7402 36.2908 54.7402 38.9528V68.7028C54.7402 71.3648 56.8982 73.5228 59.5602 73.5228H60.2202C62.8822 73.5228 65.0402 71.3648 65.0402 68.7028V38.9528C65.0402 36.2908 62.8822 34.1328 60.2202 34.1328Z" fill="white"/>
<path fill-rule="evenodd" clip-rule="evenodd" d="M212.56 83.8591H212.6C219.11 83.8591 225.45 81.7591 230.66 77.8491L231.77 82.9691H242.89V0.0390625H230.75L230.22 29.3591C225.15 25.5791 219.01 23.2591 212.56 23.2591C195.83 23.2591 182.26 36.8291 182.26 53.5591C182.26 70.2891 195.83 83.8591 212.56 83.8591ZM212.6 35.3691C222.07 35.3691 229.77 43.5091 229.77 53.5691C229.77 63.6291 222.07 71.7691 212.6 71.7691C203.12 71.7691 195.43 63.6291 195.43 53.5791C195.43 43.5191 203.13 35.3791 212.6 35.3791V35.3691Z" fill="white"/>
<path fill-rule="evenodd" clip-rule="evenodd" d="M146.44 23.2734H146.4C129.67 23.2734 116.1 36.8434 116.1 53.5734C116.1 70.3034 128.38 83.8734 145.15 83.8734C153.87 83.8734 159.92 80.4434 164.06 75.8634L165.62 82.8534H176.74V53.5734C176.74 36.8434 163.17 23.2734 146.44 23.2734ZM146.4 71.7634C136.92 71.7634 129.23 63.6234 129.23 53.5634C129.23 43.5034 136.93 35.3634 146.4 35.3634C155.87 35.3634 163.57 43.5034 163.57 53.5534C163.57 63.6034 155.87 71.7534 146.4 71.7534V71.7634Z" fill="white"/>
<path fill-rule="evenodd" clip-rule="evenodd" d="M279.48 23.2734H279.44C262.71 23.2734 249.14 36.8434 249.14 53.5734C249.14 70.3034 261.42 83.8734 278.19 83.8734C286.91 83.8734 292.96 80.4434 297.1 75.8634L298.66 82.8534H309.78V53.5734C309.78 36.8434 296.21 23.2734 279.48 23.2734ZM279.44 71.7634C269.96 71.7634 262.27 63.6234 262.27 53.5634C262.27 43.5034 269.97 35.3634 279.44 35.3634C288.91 35.3634 296.61 43.5034 296.61 53.5534C296.61 63.6034 288.91 71.7534 279.44 71.7534V71.7634Z" fill="white"/>
<path d="M419.489 24.25H406.359V82.85H419.489V24.25Z" fill="white"/>
<path fill-rule="evenodd" clip-rule="evenodd" d="M412.949 0C411.819 0 410.699 0.22 409.659 0.65C408.619 1.08 407.669 1.71 406.869 2.51C406.069 3.31 405.439 4.26 405.009 5.3C404.579 6.34 404.359 7.46 404.359 8.59C404.359 10.87 405.259 13.05 406.879 14.66C408.489 16.27 410.679 17.18 412.949 17.18C415.229 17.18 417.409 16.27 419.019 14.66C420.629 13.05 421.539 10.87 421.539 8.59C421.539 7.46 421.319 6.34 420.889 5.3C420.459 4.26 419.829 3.31 419.029 2.51C418.229 1.71 417.289 1.08 416.239 0.65C415.199 0.22 414.079 0 412.949 0Z" fill="white"/>
<path d="M453.949 48.5591L478.899 22.6391H464.359L440.039 48.4491H439.929V24.1991V0.0390625H426.799V82.8391H439.929V61.2091L445.079 56.1191L465.509 82.8391H479.869L453.949 48.5591Z" fill="white"/>
<path fill-rule="evenodd" clip-rule="evenodd" d="M386.229 25.8925C382.859 24.1925 379.139 23.3125 375.369 23.3125C371.599 23.3125 367.879 24.1925 364.509 25.8925C362.049 27.1525 359.829 28.8225 357.929 30.8325C356.029 28.8225 353.809 27.1525 351.339 25.8925C347.969 24.1925 344.249 23.3125 340.479 23.3125C336.709 23.3125 332.989 24.1925 329.619 25.8925C325.669 27.9025 322.349 30.9625 320.029 34.7425C317.719 38.5225 316.489 42.8625 316.489 47.2925V82.8825H329.619V46.2625C329.619 44.8325 329.899 43.4225 330.439 42.1025C330.989 40.7825 331.789 39.5825 332.789 38.5825C333.799 37.5725 334.999 36.7725 336.309 36.2325C337.629 35.6925 339.039 35.4125 340.469 35.4125C341.899 35.4125 343.309 35.6925 344.629 36.2325C345.949 36.7725 347.149 37.5725 348.149 38.5825C349.159 39.5925 349.959 40.7925 350.499 42.1025C351.039 43.4225 351.319 44.8325 351.319 46.2625V82.8825H364.449V46.2625C364.449 44.8325 364.729 43.4225 365.269 42.1025C365.819 40.7825 366.619 39.5825 367.619 38.5825C368.629 37.5725 369.829 36.7725 371.139 36.2325C372.459 35.6925 373.869 35.4125 375.299 35.4125C376.729 35.4125 378.139 35.6925 379.459 36.2325C380.779 36.7725 381.979 37.5725 382.979 38.5825C383.989 39.5925 384.789 40.7925 385.329 42.1025C385.869 43.4225 386.149 44.8325 386.149 46.2625V82.8825H399.279V47.2925C399.279 42.8625 398.059 38.5125 395.739 34.7425C393.419 30.9625 390.099 27.9025 386.149 25.8925H386.189H386.229Z" fill="white"/>
</g>
<defs>
<clipPath id="clip0_1306_5669">
<rect width="479.87" height="99.11" fill="white"/>
</clipPath>
</defs>
</svg>
