<svg width="189" height="40" viewBox="0 0 189 40" fill="none" xmlns="http://www.w3.org/2000/svg">
<g clip-path="url(#clip0_91_24)">
<path d="M74.781 35.0085V21.5176C74.781 18.4503 76.5276 16.4241 79.2658 16.4241C81.8145 16.4241 83.419 18.4532 83.419 21.5176V35.0085H90.0291V21.5176C90.0291 18.4503 91.7757 16.4241 94.5139 16.4241C97.0626 16.4241 98.7144 18.4532 98.7144 21.5176V35.0085H105.277V19.4412C105.277 14.676 101.926 10.8574 96.734 10.8574C92.9094 10.8574 89.9374 12.8865 88.8036 15.1966C87.6698 12.3659 85.2632 10.8574 81.5333 10.8574C78.3244 10.8574 76.0569 12.4133 74.784 14.5843V11.236H68.1738V35.0085H74.784H74.781Z" fill="black"/>
<path fill-rule="evenodd" clip-rule="evenodd" d="M120.739 10.6619C127.545 10.5318 133.095 16.0334 133.009 22.662C133.009 23.3985 132.965 23.9605 132.923 24.2652H114.759C114.976 27.9034 117.492 30.2874 120.958 30.2874C123.732 30.2874 125.943 28.77 126.509 26.2144H132.882C131.929 32.0178 126.855 35.5288 120.917 35.5288C113.765 35.5288 108.475 30.1573 108.475 23.0968C108.345 16.2079 113.936 10.5347 120.745 10.6649L120.739 10.6619ZM120.869 15.7288C118.096 15.7288 115.926 17.4621 115.189 20.1035H126.417C125.896 17.3319 123.513 15.7288 120.866 15.7288H120.869Z" fill="black"/>
<path d="M151.048 11.1826H136.525V35.0083H142.724V17.0747H151.048V11.1826Z" fill="black"/>
<path fill-rule="evenodd" clip-rule="evenodd" d="M157.43 0.439453C159.686 0.439453 161.376 1.95684 161.376 4.07764C161.376 6.19844 159.686 7.76019 157.43 7.76019C155.175 7.76019 153.484 6.28717 153.484 4.07764C153.484 1.86811 155.175 0.439453 157.43 0.439453ZM154.352 11.1825H160.55V35.0081H154.352V11.1825Z" fill="black"/>
<path fill-rule="evenodd" clip-rule="evenodd" d="M175.125 10.6616C178.42 10.6616 180.978 12.1346 182.668 14.6045V11.1822H188.867V35.0079H182.668V31.7158C181.064 34.0969 178.462 35.5285 175.167 35.5285C168.968 35.5285 164.199 30.3315 164.199 23.0965C164.199 15.8616 169.013 10.6646 175.125 10.6646V10.6616ZM172.177 18.3728C171.005 19.5855 170.442 21.1443 170.442 23.0936C170.442 25.0428 171.005 26.6016 172.177 27.8143C173.346 29.0271 174.82 29.6334 176.555 29.6334C180.066 29.6334 182.668 27.0335 182.668 23.0936C182.668 19.1537 180.066 16.5537 176.555 16.5537C174.82 16.5537 173.346 17.1601 172.177 18.3728Z" fill="black"/>
<path d="M38.4732 1.87793H27.4484L21.936 11.5087L27.372 21.0567L32.7698 11.4705H43.871L38.4732 1.87793Z" fill="#FF592C"/>
<path d="M16.5377 1.87793H5.51289L0.000488281 11.5087L5.4365 21.0567L10.8344 11.4705H21.9355L16.5377 1.87793Z" fill="#FF592C"/>
<path d="M49.44 40.0001H38.4152L32.9028 30.3757L38.3388 20.8213L43.7366 30.4139H54.8378L49.44 40.0001Z" fill="#FF592C"/>
<path d="M27.5045 40.0001H16.4797L10.9673 30.3757L16.4033 20.8213L21.8012 30.4139H32.9023L27.5045 40.0001Z" fill="#FF592C"/>
</g>
<defs>
<clipPath id="clip0_91_24">
<rect width="189" height="40" fill="white"/>
</clipPath>
</defs>
</svg>
