<svg version="1.1" xmlns="http://www.w3.org/2000/svg" viewBox="0 0 1021.5424284170266 691.8634269163013" width="2043.0848568340532" height="1383.7268538326025" filter="invert(93%) hue-rotate(180deg)">
  <!-- svg-source:excalidraw -->
  
  <defs>
    <style class="style-fonts">
      @font-face {
        font-family: "Virgil";
        src: url("https://excalidraw.com/Virgil.woff2");
      }
      @font-face {
        font-family: "Cascadia";
        src: url("https://excalidraw.com/Cascadia.woff2");
      }
      @font-face {
        font-family: "Assistant";
        src: url("https://excalidraw.com/Assistant-Regular.woff2");
      }
    </style>
    
  </defs>
  <rect x="0" y="0" width="1021.5424284170266" height="691.8634269163013" fill="#ffffff"></rect><g stroke-linecap="round" transform="translate(478.48817800235713 77.41015625) rotate(0 96.296875 42.482421875)"><path d="M21.24 0 C51.21 1.22, 83.96 1.66, 171.35 0 M21.24 0 C73.31 0.82, 126.85 -0.35, 171.35 0 M171.35 0 C186.09 0.18, 192.43 7.38, 192.59 21.24 M171.35 0 C183.38 -0.1, 193.03 5.6, 192.59 21.24 M192.59 21.24 C194.01 34.9, 191.39 48.91, 192.59 63.72 M192.59 21.24 C192.22 35.95, 191.95 51.27, 192.59 63.72 M192.59 63.72 C193.6 78.34, 183.6 85.29, 171.35 84.96 M192.59 63.72 C190.58 78.43, 183.25 86.21, 171.35 84.96 M171.35 84.96 C118.35 82.13, 66.17 81.89, 21.24 84.96 M171.35 84.96 C131.44 84.03, 89.52 84.15, 21.24 84.96 M21.24 84.96 C6.8 85, -1.77 78.43, 0 63.72 M21.24 84.96 C5.5 82.72, -0.9 78.02, 0 63.72 M0 63.72 C-1.18 49.8, -0.81 32.03, 0 21.24 M0 63.72 C0.84 54.57, 0.39 46.95, 0 21.24 M0 21.24 C-0.99 7.52, 7.95 1.04, 21.24 0 M0 21.24 C-1.22 8.87, 8.61 2.2, 21.24 0" stroke="#1e1e1e" stroke-width="2" fill="none"></path></g><g transform="translate(501.4912907953259 91.56813626294132) rotate(0 72.89994049072266 25)"><text x="72.89994049072266" y="17.52" font-family="Virgil, Segoe UI Emoji" font-size="20px" fill="#1e1e1e" text-anchor="middle" style="white-space: pre;" direction="ltr" dominant-baseline="alphabetic">Retrieve User </text><text x="72.89994049072266" y="42.519999999999996" font-family="Virgil, Segoe UI Emoji" font-size="20px" fill="#1e1e1e" text-anchor="middle" style="white-space: pre;" direction="ltr" dominant-baseline="alphabetic">Public details</text></g><g stroke-linecap="round" transform="translate(478.56239675235713 365.263671875) rotate(0 96.296875 42.482421875)"><path d="M21.24 0 C55.99 -0.48, 86.55 2.34, 171.35 0 M21.24 0 C52.6 -1.72, 83.37 -1.59, 171.35 0 M171.35 0 C186.76 0.73, 194.32 6.72, 192.59 21.24 M171.35 0 C184.06 0.52, 191.61 8.09, 192.59 21.24 M192.59 21.24 C192.59 37.79, 193.42 51.98, 192.59 63.72 M192.59 21.24 C191.74 30.46, 191.39 40.03, 192.59 63.72 M192.59 63.72 C191.01 78.5, 184.38 84.73, 171.35 84.96 M192.59 63.72 C190.95 79.19, 186.83 86.16, 171.35 84.96 M171.35 84.96 C122.09 84.34, 71.28 84.29, 21.24 84.96 M171.35 84.96 C128.14 84.18, 85.13 84.37, 21.24 84.96 M21.24 84.96 C7.6 85.96, 1.56 76.52, 0 63.72 M21.24 84.96 C6.86 85.73, -0.66 75.88, 0 63.72 M0 63.72 C0.76 56.15, -1.72 44.06, 0 21.24 M0 63.72 C-0.22 48.9, -0.9 33.42, 0 21.24 M0 21.24 C0.11 5.52, 7.5 -0.91, 21.24 0 M0 21.24 C0.47 5.86, 7.67 0.26, 21.24 0" stroke="#1e1e1e" stroke-width="2" fill="none"></path></g><g transform="translate(505.6592595453259 382.5857143879414) rotate(0 72.89994049072266 25)"><text x="72.89994049072266" y="17.52" font-family="Virgil, Segoe UI Emoji" font-size="20px" fill="#1e1e1e" text-anchor="middle" style="white-space: pre;" direction="ltr" dominant-baseline="alphabetic">Retrieve User </text><text x="72.89994049072266" y="42.519999999999996" font-family="Virgil, Segoe UI Emoji" font-size="20px" fill="#1e1e1e" text-anchor="middle" style="white-space: pre;" direction="ltr" dominant-baseline="alphabetic">Intent</text></g><g stroke-linecap="round" transform="translate(771.5426737557216 363.697265625) rotate(0 95.8849197183012 42.30068328721336)"><path d="M21.15 0 C64.36 -3.15, 106.95 -3.01, 170.62 0 M21.15 0 C68.67 -0.83, 115.92 -0.89, 170.62 0 M170.62 0 C183.7 1.57, 192.43 6.65, 191.77 21.15 M170.62 0 C185.28 0.48, 190.4 5.55, 191.77 21.15 M191.77 21.15 C190.05 30.72, 190.62 40.86, 191.77 63.45 M191.77 21.15 C192.75 30.21, 192.47 41.04, 191.77 63.45 M191.77 63.45 C190.55 78.48, 183.69 84.04, 170.62 84.6 M191.77 63.45 C192.72 76.85, 185.35 82.55, 170.62 84.6 M170.62 84.6 C112.39 85.37, 57.83 86.34, 21.15 84.6 M170.62 84.6 C128.43 84.49, 85.49 84.27, 21.15 84.6 M21.15 84.6 C5.83 85.91, -0.22 75.76, 0 63.45 M21.15 84.6 C8.88 85.13, 0.59 77.57, 0 63.45 M0 63.45 C-0.41 50.06, 1.77 32.64, 0 21.15 M0 63.45 C0.1 48.96, -0.4 34.78, 0 21.15 M0 21.15 C0.57 6.75, 5.29 1, 21.15 0 M0 21.15 C-2.05 4.81, 8.38 1.27, 21.15 0" stroke="#1e1e1e" stroke-width="2" fill="none"></path></g><g transform="translate(784.5469115026109 371.57592806870184) rotate(0 87.43470001220703 37.33957607073228)"><text x="87.43470001220703" y="17.445049940246108" font-family="Virgil, Segoe UI Emoji" font-size="19.914440571057202px" fill="#1e1e1e" text-anchor="middle" style="white-space: pre;" direction="ltr" dominant-baseline="alphabetic">Translate intent </text><text x="87.43470001220703" y="42.33810065406761" font-family="Virgil, Segoe UI Emoji" font-size="19.914440571057202px" fill="#1e1e1e" text-anchor="middle" style="white-space: pre;" direction="ltr" dominant-baseline="alphabetic">into</text><text x="87.43470001220703" y="67.23115136788911" font-family="Virgil, Segoe UI Emoji" font-size="19.914440571057202px" fill="#1e1e1e" text-anchor="middle" style="white-space: pre;" direction="ltr" dominant-baseline="alphabetic">raw transaction</text></g><g stroke-linecap="round" transform="translate(159.41523498323215 477.3954251180975) rotate(0 95.8849197183012 42.30068328721342)"><path d="M21.15 0 C80.43 -1.53, 136.03 -0.99, 170.62 0 M21.15 0 C80.21 -0.93, 137.73 0.25, 170.62 0 M170.62 0 C185.67 -1.68, 190.64 6.09, 191.77 21.15 M170.62 0 C183.61 -0.29, 192.09 6.46, 191.77 21.15 M191.77 21.15 C190.75 32.77, 193.3 45.73, 191.77 63.45 M191.77 21.15 C190.84 33.17, 192.47 45.8, 191.77 63.45 M191.77 63.45 C190.06 79.05, 182.79 84.21, 170.62 84.6 M191.77 63.45 C192.67 76.18, 184.56 82.5, 170.62 84.6 M170.62 84.6 C124.6 85.72, 75.79 85.47, 21.15 84.6 M170.62 84.6 C137.34 84.73, 103.13 85.64, 21.15 84.6 M21.15 84.6 C5.55 85.88, -1.5 76.07, 0 63.45 M21.15 84.6 C7.04 85.7, -0.87 76.92, 0 63.45 M0 63.45 C-0.53 49.51, -0.38 36.04, 0 21.15 M0 63.45 C1.08 50.23, -0.53 35.94, 0 21.15 M0 21.15 C-0.48 7.98, 7.45 -1.65, 21.15 0 M0 21.15 C2.22 8.62, 6.48 0.37, 21.15 0" stroke="#1e1e1e" stroke-width="2" fill="none"></path></g><g transform="translate(197.0422840500301 494.0522274390538) rotate(0 58.58513641357425 24.89305071382148)"><text x="58.58513641357422" y="17.445049940246108" font-family="Virgil, Segoe UI Emoji" font-size="19.914440571057202px" fill="#1e1e1e" text-anchor="middle" style="white-space: pre;" direction="ltr" dominant-baseline="alphabetic">Sign Raw </text><text x="58.58513641357422" y="42.33810065406761" font-family="Virgil, Segoe UI Emoji" font-size="19.914440571057202px" fill="#1e1e1e" text-anchor="middle" style="white-space: pre;" direction="ltr" dominant-baseline="alphabetic">Transaction</text></g><g stroke-linecap="round" transform="translate(785.7107178123905 512.0138678005733) rotate(0 95.88491971830115 42.30068328721336)"><path d="M21.15 0 C79.37 1.8, 133.18 -0.67, 170.62 0 M21.15 0 C66.87 0.64, 112.67 1.9, 170.62 0 M170.62 0 C184.86 -1.36, 193.02 8.97, 191.77 21.15 M170.62 0 C182.93 0.39, 190.94 5.18, 191.77 21.15 M191.77 21.15 C189.96 31.73, 191.1 43.42, 191.77 63.45 M191.77 21.15 C192.41 32.13, 191.24 42.72, 191.77 63.45 M191.77 63.45 C191.34 76.5, 184.85 84.53, 170.62 84.6 M191.77 63.45 C189.92 77.49, 186.65 83.55, 170.62 84.6 M170.62 84.6 C117.04 84.09, 67.2 86.6, 21.15 84.6 M170.62 84.6 C115.49 84.97, 60.28 85.82, 21.15 84.6 M21.15 84.6 C8.03 82.97, -1.44 79.36, 0 63.45 M21.15 84.6 C6.71 85.83, -0.81 77.63, 0 63.45 M0 63.45 C0.27 50.98, -1.53 41.05, 0 21.15 M0 63.45 C-0.2 52.92, -1.08 40.01, 0 21.15 M0 21.15 C-1.45 5.35, 6.86 0.27, 21.15 0 M0 21.15 C0.02 5.25, 8.56 0.97, 21.15 0" stroke="#1e1e1e" stroke-width="2" fill="none"></path></g><g transform="translate(820.7635481291883 529.5886388715296) rotate(0 58.58513641357422 24.89305071382148)"><text x="58.58513641357422" y="17.445049940246108" font-family="Virgil, Segoe UI Emoji" font-size="19.914440571057202px" fill="#1e1e1e" text-anchor="middle" style="white-space: pre;" direction="ltr" dominant-baseline="alphabetic">Broadcast</text><text x="58.58513641357422" y="42.33810065406761" font-family="Virgil, Segoe UI Emoji" font-size="19.914440571057202px" fill="#1e1e1e" text-anchor="middle" style="white-space: pre;" direction="ltr" dominant-baseline="alphabetic">Transaction</text></g><g stroke-linecap="round" transform="translate(768.4881780023571 198.076171875) rotate(0 96.296875 42.482421875)"><path d="M21.24 0 C65.96 -0.21, 113.17 -0.33, 171.35 0 M21.24 0 C55.2 -1.01, 87.06 -1.25, 171.35 0 M171.35 0 C185.47 -0.11, 191.42 6.37, 192.59 21.24 M171.35 0 C184.16 1.58, 193.67 9.33, 192.59 21.24 M192.59 21.24 C193.3 34.75, 192.6 52.7, 192.59 63.72 M192.59 21.24 C193.56 35.11, 192.59 50.17, 192.59 63.72 M192.59 63.72 C192.64 78.86, 186.12 84.66, 171.35 84.96 M192.59 63.72 C193.81 78.01, 187.42 82.82, 171.35 84.96 M171.35 84.96 C122.08 85.81, 69.76 85.29, 21.24 84.96 M171.35 84.96 C111.67 83.72, 51.49 85.32, 21.24 84.96 M21.24 84.96 C6.12 85.49, -0.09 78.91, 0 63.72 M21.24 84.96 C5 85.67, 1.32 77.36, 0 63.72 M0 63.72 C-0.96 49.32, 0.95 32.82, 0 21.24 M0 63.72 C0.18 47.36, -0.22 31.76, 0 21.24 M0 21.24 C0.15 8.25, 7.63 1.73, 21.24 0 M0 21.24 C-0.16 6.92, 7.26 0.51, 21.24 0" stroke="#1e1e1e" stroke-width="2" fill="none"></path></g><g transform="translate(774.3013036127087 213.50368313794138) rotate(0 90.08992767333984 25)"><text x="90.08992767333984" y="17.52" font-family="Virgil, Segoe UI Emoji" font-size="20px" fill="#1e1e1e" text-anchor="middle" style="white-space: pre;" direction="ltr" dominant-baseline="alphabetic">Retrieve On-chain </text><text x="90.08992767333984" y="42.519999999999996" font-family="Virgil, Segoe UI Emoji" font-size="20px" fill="#1e1e1e" text-anchor="middle" style="white-space: pre;" direction="ltr" dominant-baseline="alphabetic">Information</text></g><g stroke-linecap="round"><g transform="translate(411.28505300235713 35.08203125) rotate(0 0 320.412109375)"><path d="M0.16 -0.86 C0.34 105.59, 0.85 532.89, 0.74 639.67 M-1.21 1.31 C-1.1 107.77, 0.24 534.05, 0.19 640.6" stroke="#1e1e1e" stroke-width="2" fill="none"></path></g></g><mask></mask><g stroke-linecap="round"><g transform="translate(725.8487363225923 36.45165635919665) rotate(0 0 318.49096869540165)"><path d="M-1 -1.01 C-0.96 105.1, 0.2 530.06, 0.37 636.42 M0.68 1.08 C0.58 107.36, -0.14 531.42, -0.39 637.66" stroke="#1e1e1e" stroke-width="2" fill="none"></path></g></g><mask></mask><g transform="translate(185.37541555118526 10) rotate(0 73.22994995117188 12.5)"><text x="73.22994995117188" y="17.52" font-family="Virgil, Segoe UI Emoji" font-size="20px" fill="#1e1e1e" text-anchor="middle" style="white-space: pre;" direction="ltr" dominant-baseline="alphabetic">Wallet / Signer</text></g><g stroke-linecap="round" transform="translate(132.11317800235713 74.544921875) rotate(0 96.296875 42.482421875)"><path d="M21.24 0 C63.13 -2.07, 103.52 -0.8, 171.35 0 M21.24 0 C80.95 -1.39, 140.77 -0.91, 171.35 0 M171.35 0 C184.57 0.04, 190.91 6.14, 192.59 21.24 M171.35 0 C184.19 -2.2, 193.22 6.39, 192.59 21.24 M192.59 21.24 C193.5 37.88, 191.26 54.38, 192.59 63.72 M192.59 21.24 C191.97 30.3, 192.51 41.05, 192.59 63.72 M192.59 63.72 C190.72 79.3, 185.85 83.13, 171.35 84.96 M192.59 63.72 C193.97 76.07, 185.09 85.91, 171.35 84.96 M171.35 84.96 C128.17 85.69, 84.07 84.19, 21.24 84.96 M171.35 84.96 C124.91 85.72, 77.06 85.04, 21.24 84.96 M21.24 84.96 C8.45 85.01, 0.34 78.04, 0 63.72 M21.24 84.96 C6.36 85.42, 0.17 77.89, 0 63.72 M0 63.72 C0.41 49.86, 0.42 33.41, 0 21.24 M0 63.72 C0.27 54.42, 0.56 42.35, 0 21.24 M0 21.24 C0.06 7.7, 7.05 -0.22, 21.24 0 M0 21.24 C-1.62 6.55, 7.24 0.02, 21.24 0" stroke="#1e1e1e" stroke-width="2" fill="none"></path></g><g transform="translate(154.10426686954463 84.03883938794132) rotate(0 78.3299331665039 37.5)"><text x="78.3299331665039" y="17.52" font-family="Virgil, Segoe UI Emoji" font-size="20px" fill="#1e1e1e" text-anchor="middle" style="white-space: pre;" direction="ltr" dominant-baseline="alphabetic">Generate User </text><text x="78.3299331665039" y="42.519999999999996" font-family="Virgil, Segoe UI Emoji" font-size="20px" fill="#1e1e1e" text-anchor="middle" style="white-space: pre;" direction="ltr" dominant-baseline="alphabetic">Private / Public</text><text x="78.3299331665039" y="67.52" font-family="Virgil, Segoe UI Emoji" font-size="20px" fill="#1e1e1e" text-anchor="middle" style="white-space: pre;" direction="ltr" dominant-baseline="alphabetic">Information</text></g><g transform="translate(538.5397679681774 10.74609375) rotate(0 27.049972534179688 12.5)"><text x="27.049972534179688" y="17.52" font-family="Virgil, Segoe UI Emoji" font-size="20px" fill="#1e1e1e" text-anchor="middle" style="white-space: pre;" direction="ltr" dominant-baseline="alphabetic">Client</text></g><g transform="translate(805.730579125404 14.77734375) rotate(0 68.15994262695312 12.5)"><text x="68.15994262695312" y="17.52" font-family="Virgil, Segoe UI Emoji" font-size="20px" fill="#1e1e1e" text-anchor="middle" style="white-space: pre;" direction="ltr" dominant-baseline="alphabetic">Adamik Server</text></g><g stroke-linecap="round"><g transform="translate(332.57411550235713 137.46357881520908) rotate(0 67.23046875 -0.5697534449985824)"><path d="M0.63 -0.34 C23.03 -0.53, 111.48 -1.9, 133.88 -2.06 M-0.5 -1.57 C22.35 -1.54, 113.78 -1.26, 136.28 -1.01" stroke="#1e1e1e" stroke-width="1" fill="none"></path></g><g transform="translate(332.57411550235713 137.46357881520908) rotate(0 67.23046875 -0.5697534449985824)"><path d="M112.74 7.39 C118.29 4.14, 123.38 3.85, 136.28 -1.01 M112.74 7.39 C119.02 5.48, 125.99 2.46, 136.28 -1.01" stroke="#1e1e1e" stroke-width="1" fill="none"></path></g><g transform="translate(332.57411550235713 137.46357881520908) rotate(0 67.23046875 -0.5697534449985824)"><path d="M112.85 -9.71 C118.24 -8.57, 123.29 -4.46, 136.28 -1.01 M112.85 -9.71 C119 -6.7, 125.93 -4.8, 136.28 -1.01" stroke="#1e1e1e" stroke-width="1" fill="none"></path></g></g><mask></mask><g stroke-linecap="round"><g transform="translate(472.82164089984974 96.32459088968392) rotate(0 -71.109375 0.9890316303015538)"><path d="M0.9 0.32 C-22.98 0.56, -119.31 0.63, -143 0.85 M-0.08 -0.56 C-23.6 -0.17, -117.13 1.23, -140.7 1.79" stroke="#1e1e1e" stroke-width="1" fill="none"></path></g><g transform="translate(472.82164089984974 96.32459088968392) rotate(0 -71.109375 0.9890316303015538)"><path d="M-117.37 -7.2 C-124.41 -5.42, -134.36 0.42, -140.7 1.79 M-117.37 -7.2 C-123.77 -5.57, -129.31 -2.4, -140.7 1.79" stroke="#1e1e1e" stroke-width="1" fill="none"></path></g><g transform="translate(472.82164089984974 96.32459088968392) rotate(0 -71.109375 0.9890316303015538)"><path d="M-117.05 9.9 C-124.11 6.16, -134.16 6.49, -140.7 1.79 M-117.05 9.9 C-123.71 6.87, -129.34 5.37, -140.7 1.79" stroke="#1e1e1e" stroke-width="1" fill="none"></path></g></g><mask></mask><g stroke-linecap="round" transform="translate(482.86708425235713 196.857421875) rotate(0 96.296875 42.482421875)"><path d="M21.24 0 C52.03 -0.11, 81.96 2.03, 171.35 0 M21.24 0 C69.24 -2.09, 117.59 -0.81, 171.35 0 M171.35 0 C184.47 0.04, 192.81 6.58, 192.59 21.24 M171.35 0 C183.81 -0.57, 192.02 8.55, 192.59 21.24 M192.59 21.24 C193.01 37.96, 190.95 52.13, 192.59 63.72 M192.59 21.24 C192.09 32.55, 192.56 42.64, 192.59 63.72 M192.59 63.72 C191.05 78.76, 186.45 83.12, 171.35 84.96 M192.59 63.72 C190.37 76.91, 185.62 83.95, 171.35 84.96 M171.35 84.96 C133.41 85.29, 97.51 86.26, 21.24 84.96 M171.35 84.96 C128.66 86.53, 86.4 86.18, 21.24 84.96 M21.24 84.96 C6.28 83.51, 1.56 77.96, 0 63.72 M21.24 84.96 C7.14 86.68, 2.07 77.69, 0 63.72 M0 63.72 C0.63 52.13, 0.36 36.54, 0 21.24 M0 63.72 C0.14 54.36, 0.31 43.41, 0 21.24 M0 21.24 C0.55 8.95, 8.84 -0.6, 21.24 0 M0 21.24 C-0.91 6.23, 8.36 0, 21.24 0" stroke="#1e1e1e" stroke-width="2" fill="none"></path></g><g transform="translate(522.9001881952282 211.04665188794138) rotate(0 55.86994934082031 25)"><text x="55.86994934082031" y="17.52" font-family="Virgil, Segoe UI Emoji" font-size="20px" fill="#1e1e1e" text-anchor="middle" style="white-space: pre;" direction="ltr" dominant-baseline="alphabetic">Synchronize</text><text x="55.86994934082031" y="42.519999999999996" font-family="Virgil, Segoe UI Emoji" font-size="20px" fill="#1e1e1e" text-anchor="middle" style="white-space: pre;" direction="ltr" dominant-baseline="alphabetic">Information</text></g><g stroke-linecap="round"><g transform="translate(1011.2577092523571 318.671875) rotate(0 -466.3125 0)"><path d="M0.28 -1.12 C-154.82 -1.18, -776.49 -0.12, -931.78 0.23" stroke="#1e1e1e" stroke-width="2.5" fill="none" stroke-dasharray="8 10"></path></g></g><mask></mask><g stroke-linecap="round"><g transform="translate(108.07477510374741 680.69140625) rotate(0 2.842170943040401e-14 -324.72498974852056)"><path d="M-0.41 1.17 C-0.54 -107.05, -0.49 -541.1, -0.59 -649.47" stroke="#1e1e1e" stroke-width="2.5" fill="none" stroke-dasharray="8 10"></path></g></g><mask></mask><g stroke-linecap="round" transform="translate(-42.59385324764287 128.58984375) rotate(269.8635522010875 89.00390625 36.41015625)"><path d="M112.5 9.25 C120.79 14.96, 130.71 22.32, 155.51 27.75 C179.66 39.14, 175.79 36.8, 155.51 46.25 C147.39 49.18, 137.05 54.83, 112.5 63.57 C90.34 71.7, 86.51 72.56, 67.5 63.57 C56.82 56.59, 45.67 58.54, 22.5 46.25 C-3.16 38.37, -1.79 33.64, 22.5 27.75 C32.21 27.32, 43.72 19.68, 67.5 9.25 C92.5 -0.29, 87.2 0.65, 112.5 9.25" stroke="none" stroke-width="0" fill="#ffec99"></path><path d="M112.5 9.25 C121.08 14.03, 129.11 16.19, 155.51 27.75 M112.5 9.25 C122.48 14.46, 130.42 18.04, 155.51 27.75 M155.51 27.75 C176.96 37.48, 179.67 37.11, 155.51 46.25 M155.51 27.75 C176.63 38.62, 177.37 38.37, 155.51 46.25 M155.51 46.25 C142.26 51.84, 133.87 55.97, 112.5 63.57 M155.51 46.25 C143.72 50.97, 133.98 56.31, 112.5 63.57 M112.5 63.57 C88.13 74.38, 90.43 74.29, 67.5 63.57 M112.5 63.57 C88.38 72.15, 90.34 73.07, 67.5 63.57 M67.5 63.57 C53.17 56.3, 36.14 52.02, 22.5 46.25 M67.5 63.57 C52.49 57.98, 38.16 52.06, 22.5 46.25 M22.5 46.25 C0.42 38.87, 0.92 36.55, 22.5 27.75 M22.5 46.25 C0.67 35.43, 2.23 36.67, 22.5 27.75 M22.5 27.75 C37.58 22.08, 49.79 18.05, 67.5 9.25 M22.5 27.75 C40.52 20.64, 56.2 13.67, 67.5 9.25 M67.5 9.25 C88.51 1.93, 88.11 -1.8, 112.5 9.25 M67.5 9.25 C90.92 -0.58, 90.23 2.23, 112.5 9.25" stroke="#1e1e1e" stroke-width="1" fill="none"></path></g><g transform="translate(18.528110253333693 152.294921875) rotate(269.8635522010875 27.879989624023438 12.5)"><text x="27.879989624023438" y="17.52" font-family="Virgil, Segoe UI Emoji" font-size="20px" fill="#1e1e1e" text-anchor="middle" style="white-space: pre;" direction="ltr" dominant-baseline="alphabetic">READ</text></g><g stroke-linecap="round" transform="translate(-42.22275949764287 486.20703125) rotate(269.8635522010875 89.00390625 36.41015625)"><path d="M112.5 9.25 C127.73 13.45, 139.89 16.95, 155.51 27.75 C181.12 39.75, 177.61 36.46, 155.51 46.25 C145.47 46.38, 139.71 50.46, 112.5 63.57 C87.06 74.85, 92.84 73.15, 67.5 63.57 C51.26 54, 37.62 54.02, 22.5 46.25 C1.18 38.6, -2.44 34.03, 22.5 27.75 C35.53 20.17, 39.15 21.86, 67.5 9.25 C92.77 2.31, 93.07 -0.12, 112.5 9.25" stroke="none" stroke-width="0" fill="#a5d8ff"></path><path d="M112.5 9.25 C127.55 15.54, 141.4 22.58, 155.51 27.75 M112.5 9.25 C126.37 14.98, 138.41 19.5, 155.51 27.75 M155.51 27.75 C179.85 37.21, 177.22 38.76, 155.51 46.25 M155.51 27.75 C178.22 38.8, 178.48 36.18, 155.51 46.25 M155.51 46.25 C138.48 51.5, 122.39 58.23, 112.5 63.57 M155.51 46.25 C141.64 52.23, 127.02 57.19, 112.5 63.57 M112.5 63.57 C88.06 74.26, 91.5 74.78, 67.5 63.57 M112.5 63.57 C91.74 74, 87.73 74.43, 67.5 63.57 M67.5 63.57 C54.67 58.53, 39.78 54.68, 22.5 46.25 M67.5 63.57 C54.72 57.9, 42.62 54.72, 22.5 46.25 M22.5 46.25 C0.28 35.71, -0.21 36.77, 22.5 27.75 M22.5 46.25 C-1.58 35.88, 0.83 35.4, 22.5 27.75 M22.5 27.75 C30.87 24.62, 43.16 19.83, 67.5 9.25 M22.5 27.75 C37.77 21.57, 52.57 15.3, 67.5 9.25 M67.5 9.25 C88.16 -0.28, 91.38 1.66, 112.5 9.25 M67.5 9.25 C91.89 -0.48, 88.5 -0.91, 112.5 9.25" stroke="#1e1e1e" stroke-width="1" fill="none"></path></g><g transform="translate(12.309207665443068 509.912109375) rotate(269.8635522010875 34.46998596191406 12.5)"><text x="34.46998596191406" y="17.52" font-family="Virgil, Segoe UI Emoji" font-size="20px" fill="#1e1e1e" text-anchor="middle" style="white-space: pre;" direction="ltr" dominant-baseline="alphabetic">WRITE</text></g><g stroke-linecap="round"><g transform="translate(675.2983242790099 221.74912915510708) rotate(0 42.732421875 0.34450038030155383)"><path d="M1.06 -0.93 C15.6 -0.82, 72.18 1.1, 86.22 1.21 M0.15 1.2 C14.69 0.9, 71.63 -0.52, 85.67 -0.64" stroke="#1e1e1e" stroke-width="1" fill="none"></path></g><g transform="translate(675.2983242790099 221.74912915510708) rotate(0 42.732421875 0.34450038030155383)"><path d="M62.34 8.33 C65.74 7.47, 73.15 4, 85.67 -0.64 M62.34 8.33 C67.82 5.8, 72.42 4.07, 85.67 -0.64" stroke="#1e1e1e" stroke-width="1" fill="none"></path></g><g transform="translate(675.2983242790099 221.74912915510708) rotate(0 42.732421875 0.34450038030155383)"><path d="M62.03 -8.77 C65.58 -5.97, 73.05 -5.79, 85.67 -0.64 M62.03 -8.77 C67.61 -7.57, 72.27 -5.57, 85.67 -0.64" stroke="#1e1e1e" stroke-width="1" fill="none"></path></g></g><mask></mask><g stroke-linecap="round"><g transform="translate(761.7934032420652 262.66437821582554) rotate(0 -40.9140625 0.18434413030155383)"><path d="M-0.16 0.27 C-13.42 0.41, -67.14 1.41, -80.73 1.24 M-1.7 -0.64 C-14.92 -0.86, -67.65 -0.53, -81.11 -0.43" stroke="#1e1e1e" stroke-width="1" fill="none"></path></g><g transform="translate(761.7934032420652 262.66437821582554) rotate(0 -40.9140625 0.18434413030155383)"><path d="M-57.67 -9.13 C-61.95 -5.58, -65.68 -5.46, -81.11 -0.43 M-57.67 -9.13 C-62.32 -6.99, -67.37 -5.01, -81.11 -0.43" stroke="#1e1e1e" stroke-width="1" fill="none"></path></g><g transform="translate(761.7934032420652 262.66437821582554) rotate(0 -40.9140625 0.18434413030155383)"><path d="M-57.56 7.97 C-61.91 8.06, -65.67 4.72, -81.11 -0.43 M-57.56 7.97 C-62.27 6.55, -67.35 4.97, -81.11 -0.43" stroke="#1e1e1e" stroke-width="1" fill="none"></path></g></g><mask></mask><g stroke-linecap="round"><g transform="translate(681.6957469920652 390.41047196582554) rotate(0 42.732421875 0.34450038030155383)"><path d="M-0.37 -0.71 C13.7 -0.67, 71.04 0.84, 85.27 1.09 M1.64 1.53 C15.45 1.13, 70.49 -0.93, 84.22 -0.82" stroke="#1e1e1e" stroke-width="1" fill="none"></path></g><g transform="translate(681.6957469920652 390.41047196582554) rotate(0 42.732421875 0.34450038030155383)"><path d="M60.88 8.15 C68.36 4.54, 78.93 0.72, 84.22 -0.82 M60.88 8.15 C67.94 5.56, 75.24 2.88, 84.22 -0.82" stroke="#1e1e1e" stroke-width="1" fill="none"></path></g><g transform="translate(681.6957469920652 390.41047196582554) rotate(0 42.732421875 0.34450038030155383)"><path d="M60.57 -8.95 C68.28 -6.17, 78.97 -3.6, 84.22 -0.82 M60.57 -8.95 C67.81 -6.22, 75.21 -3.58, 84.22 -0.82" stroke="#1e1e1e" stroke-width="1" fill="none"></path></g></g><mask></mask><g stroke-linecap="round"><g transform="translate(762.2662628471691 424.27108907570687) rotate(0 -40.9140625 0.18434413030155383)"><path d="M-0.51 -0.99 C-14.32 -0.88, -68.82 -0.23, -82.51 0.06 M1.42 1.1 C-12.02 1.45, -66.55 1.86, -80.15 1.43" stroke="#1e1e1e" stroke-width="1" fill="none"></path></g><g transform="translate(762.2662628471691 424.27108907570687) rotate(0 -40.9140625 0.18434413030155383)"><path d="M-56.58 -6.92 C-66.04 -5.4, -72.65 -2.87, -80.15 1.43 M-56.58 -6.92 C-63.34 -4.72, -71.21 -0.64, -80.15 1.43" stroke="#1e1e1e" stroke-width="1" fill="none"></path></g><g transform="translate(762.2662628471691 424.27108907570687) rotate(0 -40.9140625 0.18434413030155383)"><path d="M-56.73 10.19 C-66.05 6.08, -72.61 2.98, -80.15 1.43 M-56.73 10.19 C-63.58 6.76, -71.41 5.23, -80.15 1.43" stroke="#1e1e1e" stroke-width="1" fill="none"></path></g></g><mask></mask><g stroke-linecap="round"><g transform="translate(567.3337038402098 495.3505019290342) rotate(0 -101.3046875 0.29567225530155383)"><path d="M0.87 -0.62 C-32.69 -0.44, -168.14 0.35, -202.21 0.75 M-0.13 1.68 C-33.74 2.09, -169.45 2.64, -202.95 2.37" stroke="#1e1e1e" stroke-width="1" fill="none"></path></g><g transform="translate(567.3337038402098 495.3505019290342) rotate(0 -101.3046875 0.29567225530155383)"><path d="M-179.45 -6.16 C-185.87 -3.37, -189.96 -3.63, -202.95 2.37 M-179.45 -6.16 C-189.51 -2.7, -198.9 0.02, -202.95 2.37" stroke="#1e1e1e" stroke-width="1" fill="none"></path></g><g transform="translate(567.3337038402098 495.3505019290342) rotate(0 -101.3046875 0.29567225530155383)"><path d="M-179.46 10.94 C-185.84 9.82, -189.92 5.65, -202.95 2.37 M-179.46 10.94 C-189.51 7.59, -198.9 3.51, -202.95 2.37" stroke="#1e1e1e" stroke-width="1" fill="none"></path></g></g><mask></mask><g stroke-linecap="round"><g transform="translate(370.56239675235713 538.2734375) rotate(0 202.91015625 0.16015625)"><path d="M0.84 0.75 C68.57 1, 339.13 0.64, 406.55 0.67 M-0.18 0.1 C67.44 0.05, 338.57 -1.07, 405.98 -1.27" stroke="#1e1e1e" stroke-width="1" fill="none"></path></g><g transform="translate(370.56239675235713 538.2734375) rotate(0 202.91015625 0.16015625)"><path d="M382.52 7.37 C391.24 5.69, 397.99 0.96, 405.98 -1.27 M382.52 7.37 C390.64 3.34, 399.2 1.18, 405.98 -1.27" stroke="#1e1e1e" stroke-width="1" fill="none"></path></g><g transform="translate(370.56239675235713 538.2734375) rotate(0 202.91015625 0.16015625)"><path d="M382.46 -9.73 C391.08 -6.01, 397.85 -5.34, 405.98 -1.27 M382.46 -9.73 C390.74 -7.74, 399.32 -3.88, 405.98 -1.27" stroke="#1e1e1e" stroke-width="1" fill="none"></path></g></g><mask></mask><g stroke-linecap="round" transform="translate(494.8627899095683 594.544921875) rotate(0 85.11366934278885 37.548828125)"><path d="M18.77 0 C64.72 0.21, 106.18 1.53, 151.45 0 M18.77 0 C54.82 1.13, 89.9 -0.03, 151.45 0 M151.45 0 C162 -1.16, 169.89 4.56, 170.23 18.77 M151.45 0 C163.39 0.25, 171.63 5.05, 170.23 18.77 M170.23 18.77 C169.56 33.6, 170.21 45.32, 170.23 56.32 M170.23 18.77 C169.68 29.39, 170.57 41, 170.23 56.32 M170.23 56.32 C170.7 69.8, 163.73 76.83, 151.45 75.1 M170.23 56.32 C170.5 70.54, 165.55 72.99, 151.45 75.1 M151.45 75.1 C124.86 73.92, 97.12 74.01, 18.77 75.1 M151.45 75.1 C121.72 76.88, 94.37 75.11, 18.77 75.1 M18.77 75.1 C7.04 75.33, -1.58 70.79, 0 56.32 M18.77 75.1 C6.83 75.14, -2.29 69.21, 0 56.32 M0 56.32 C1.51 45.45, -0.43 32.56, 0 18.77 M0 56.32 C-1.01 48.5, 0.31 39.63, 0 18.77 M0 18.77 C-0.47 7.93, 7.57 -0.73, 18.77 0 M0 18.77 C0.32 4.26, 4.77 0.63, 18.77 0" stroke="#1e1e1e" stroke-width="2" fill="none"></path></g><g transform="translate(529.2332317649688 609.8553106990217) rotate(0 54.62675476074219 22.096685209875375)"><text x="54.62675476074219" y="15.485356995080682" font-family="Virgil, Segoe UI Emoji" font-size="17.677348167900323px" fill="#1e1e1e" text-anchor="middle" style="white-space: pre;" direction="ltr" dominant-baseline="alphabetic">Retrieve tx </text><text x="54.62675476074219" y="37.58204220495608" font-family="Virgil, Segoe UI Emoji" font-size="17.677348167900323px" fill="#1e1e1e" text-anchor="middle" style="white-space: pre;" direction="ltr" dominant-baseline="alphabetic">confirmation</text></g><g stroke-linecap="round"><g transform="translate(877.6131780023571 600.62890625) rotate(0 0.66796875 20.84375)"><path d="M0.35 -0.03 C0.65 6.89, 1.32 34.45, 1.41 41.42 M-0.13 -0.52 C0.13 6.47, 0.66 34.82, 1.01 41.98" stroke="#1e1e1e" stroke-width="1" fill="none"></path></g></g><mask></mask><g stroke-linecap="round"><g transform="translate(876.6219506208437 641.4984766868145) rotate(0 -101.984375 -0.572265625)"><path d="M-1.19 -0.25 C-34.91 -0.45, -168.88 -1.77, -202.8 -2.07 M0.39 -1.43 C-33.35 -1.43, -169.37 -1.06, -203.14 -1.02" stroke="#1e1e1e" stroke-width="1" fill="none"></path></g><g transform="translate(876.6219506208437 641.4984766868145) rotate(0 -101.984375 -0.572265625)"><path d="M-179.66 -9.62 C-186.28 -5.66, -193.54 -6.58, -203.14 -1.02 M-179.66 -9.62 C-185.86 -8.35, -190.84 -6.41, -203.14 -1.02" stroke="#1e1e1e" stroke-width="1" fill="none"></path></g><g transform="translate(876.6219506208437 641.4984766868145) rotate(0 -101.984375 -0.572265625)"><path d="M-179.63 7.48 C-186.13 6.97, -193.4 1.58, -203.14 -1.02 M-179.63 7.48 C-185.89 4.91, -190.88 3.02, -203.14 -1.02" stroke="#1e1e1e" stroke-width="1" fill="none"></path></g></g><mask></mask><g stroke-linecap="round"><g transform="translate(566.0521821452668 452.50104174351077) rotate(0 0.66796875 20.84375)"><path d="M0.11 0.24 C0.35 7.17, 1.3 34.65, 1.43 41.52 M-0.49 -0.11 C-0.32 6.91, 0.64 35.12, 1.05 42.14" stroke="#1e1e1e" stroke-width="1" fill="none"></path></g></g><mask></mask></svg>